<?xml version="1.0" encoding="UTF-8"?>
<svg version="1.1" xmlns="http://www.w3.org/2000/svg" width="1080" height="1080">
<path d="M0 0 C356.4 0 712.8 0 1080 0 C1080 356.4 1080 712.8 1080 1080 C723.6 1080 367.2 1080 0 1080 C0 723.6 0 367.2 0 0 Z " fill="#FEFEFE" transform="translate(0,0)"/>
<path d="M0 0 C1.07314453 0.52835449 1.07314453 0.52835449 2.16796875 1.06738281 C12.0396247 5.97502906 21.35860405 11.09528654 30 18 C30.84691406 18.64582031 31.69382812 19.29164063 32.56640625 19.95703125 C59.21860886 40.58705678 77.05453008 72.19831467 81.7243588 105.5208776 C82.63779081 113.73630307 82.40149076 122.0488911 82.36889648 130.30200195 C82.37137018 132.49190966 82.37521432 134.68181618 82.38031006 136.87171936 C82.3885897 141.55269154 82.38789069 146.23354181 82.38012505 150.91451454 C82.3684582 158.32491726 82.38077283 165.73516587 82.39674377 173.14555359 C82.4327887 191.54003742 82.4392669 209.93452617 82.43664551 228.32904053 C82.43485551 242.65239705 82.44209124 256.9756306 82.47662407 271.2989518 C82.49336847 278.65758086 82.49166732 286.01589807 82.47580135 293.37452567 C82.46998877 297.95633215 82.48077161 302.53799187 82.49604797 307.11977196 C82.49976117 309.23525804 82.49670409 311.35076915 82.48617744 313.4662323 C82.41589154 328.60522478 83.25049726 342.38438487 93.93359375 354.125 C101.34813384 361.31485706 108.83764864 364.16066062 119.125 364.4375 C129.68648237 364.08084863 139.37716084 360.50480246 147.046875 352.99609375 C155.15581213 343.31041884 156.59310265 333.09965374 156.51898193 320.80744934 C156.52486822 319.39964032 156.53250099 317.99183773 156.541713 316.58404654 C156.56185581 312.74365141 156.5574504 308.90362816 156.54880548 305.06320465 C156.54384081 300.91130659 156.56197006 296.75949958 156.57722473 292.6076355 C156.60049207 285.4235859 156.60928726 278.23963712 156.60811615 271.05555153 C156.60644408 260.66872941 156.62681049 250.28204135 156.65247145 239.89525505 C156.69351481 223.04142331 156.7168558 206.18761575 156.72900391 189.33374023 C156.74083927 172.96652911 156.76104929 156.59936347 156.79248047 140.23217773 C156.79441657 139.22247619 156.79635267 138.21277465 156.79834744 137.17247609 C156.8081123 132.10685264 156.81804136 127.04122953 156.82805204 121.97560656 C156.91082413 79.98374493 156.96156921 37.99193022 157 -4 C191.98 -4 226.96 -4 263 -4 C263.08833954 38.77808105 263.16213527 81.55607541 263.20426132 124.33422172 C263.20926357 129.39550344 263.21444092 134.45678497 263.21972656 139.51806641 C263.2207758 140.52558936 263.22182505 141.53311232 263.22290608 142.57116628 C263.24026614 158.84092987 263.27177933 175.11063637 263.30861118 191.38036621 C263.3461435 208.10014201 263.3682617 224.81988812 263.37635398 241.53970432 C263.38181639 251.83965968 263.39900832 262.13945363 263.43166587 272.43935925 C263.45296587 279.5220991 263.45916542 286.60475668 263.45400551 293.68752617 C263.45146755 297.76139581 263.45509083 301.83498535 263.4768219 305.90880394 C263.69982277 349.98255379 254.36673664 388.09718713 222.8203125 420.328125 C211.13818395 431.81061076 197.74218234 440.02686329 183 447 C182.25588867 447.35425049 181.51177734 447.70850098 180.74511719 448.07348633 C160.59152903 457.37765365 138.08377322 459.25072104 116.1875 459.375 C115.45418457 459.38294586 114.72086914 459.39089172 113.96533203 459.39907837 C100.10551855 459.51451215 87.08784623 457.44781827 73.75 453.625 C72.99750977 453.41077393 72.24501953 453.19654785 71.46972656 452.97583008 C37.31704223 442.99088289 8.39975912 418.10357316 -8.625 387.125 C-12.18139174 380.35782444 -14.89323129 373.34857527 -17.375 366.125 C-17.69678223 365.20605957 -18.01856445 364.28711914 -18.35009766 363.34033203 C-23.73225272 346.82955386 -24.44054956 330.0243313 -24.38476562 312.80639648 C-24.38888211 310.65235611 -24.39434928 308.49831796 -24.40104675 306.34428406 C-24.41267339 301.74737966 -24.41529188 297.15059499 -24.41069031 292.55367851 C-24.40382404 285.2780798 -24.41984198 278.00263607 -24.43908691 270.72706604 C-24.47996409 253.98479146 -24.49148927 237.24252205 -24.50261688 220.50020599 C-24.5131379 205.11856285 -24.52993163 189.73699527 -24.57071257 174.35539871 C-24.58902296 167.12839615 -24.59297841 159.90157394 -24.58577728 152.67455375 C-24.58425289 148.18027107 -24.59505401 143.68607836 -24.60915565 139.19182014 C-24.61314877 137.11419642 -24.61204963 135.03655547 -24.60538292 132.9589386 C-24.59695888 130.11465464 -24.60703968 127.27098965 -24.62145996 124.42674255 C-24.61456603 123.61282262 -24.60767209 122.79890268 -24.60056925 121.96031851 C-24.70357791 111.47127148 -28.14578507 102.90360055 -35 95 C-37.81215423 92.31613748 -40.73340017 90.10154972 -44 88 C-44.65226563 87.56558594 -45.30453125 87.13117188 -45.9765625 86.68359375 C-54.00221722 82.23694722 -64.40376567 82.96568986 -73.19140625 84.58984375 C-82.69138245 87.52226884 -90.05290322 94.52677419 -95.0625 102.98046875 C-97.25282667 107.69879745 -98.25025391 111.86519164 -98.26171303 117.06381035 C-98.26917852 118.26359453 -98.27664401 119.46337871 -98.28433573 120.69951999 C-98.282401 122.00885631 -98.28046626 123.31819263 -98.2784729 124.66720581 C-98.2834777 126.07894432 -98.28935404 127.49067996 -98.29602563 128.90241158 C-98.31181739 132.77680688 -98.31525586 136.65112963 -98.31667423 140.52555323 C-98.32036971 144.70546691 -98.33552594 148.88534086 -98.34928894 153.06523132 C-98.37156092 160.30554666 -98.38657458 167.54584786 -98.39665604 174.78619003 C-98.41124261 185.25449973 -98.43677939 195.7227602 -98.46498732 206.19104101 C-98.51045569 223.1751992 -98.54707032 240.15936448 -98.578125 257.14355469 C-98.60831035 273.64193975 -98.64266056 290.14030746 -98.68261719 306.63867188 C-98.68507874 307.65566103 -98.68754028 308.67265018 -98.69007643 309.72045718 C-98.70245102 314.82240184 -98.71490756 319.9243463 -98.72740483 325.02629066 C-98.83097332 367.35083995 -98.91854669 409.67540123 -99 452 C-134.31 452 -169.62 452 -206 452 C-206.08833954 409.22191895 -206.16213527 366.44392459 -206.20426132 323.66577828 C-206.20926357 318.60449656 -206.21444092 313.54321503 -206.21972656 308.48193359 C-206.2207758 307.47441064 -206.22182505 306.46688768 -206.22290608 305.42883372 C-206.24026614 289.15907013 -206.27177933 272.88936363 -206.30861118 256.61963379 C-206.3461435 239.89985799 -206.3682617 223.18011188 -206.37635398 206.46029568 C-206.38181639 196.16034032 -206.39900832 185.86054637 -206.43166587 175.56064075 C-206.45296587 168.4779009 -206.45916542 161.39524332 -206.45400551 154.31247383 C-206.45146755 150.23860419 -206.45509083 146.16501465 -206.4768219 142.09119606 C-206.70538138 96.92985777 -197.19485034 60.02153694 -165 27 C-124.31234596 -13.82040332 -51.66278052 -25.45151687 0 0 Z " fill="#000000" transform="translate(498,313)"/>
<path d="M0 0 C0 2 0 2 -2.3125 4.625 C-5 7 -5 7 -8 7 C-8 7.66 -8 8.32 -8 9 C-10 10.625 -10 10.625 -12 12 C-12 9 -12 9 -9.8828125 6.73828125 C-8.97273437 5.93777344 -8.06265625 5.13726563 -7.125 4.3125 C-5.76761719 3.10013672 -5.76761719 3.10013672 -4.3828125 1.86328125 C-2 0 -2 0 0 0 Z " fill="#E8E8E8" transform="translate(724,731)"/>
<path d="M0 0 C0 3 0 3 -2.1875 5.375 C-3.115625 6.24125 -4.04375 7.1075 -5 8 C-5.928125 8.928125 -6.85625 9.85625 -7.8125 10.8125 C-8.534375 11.534375 -9.25625 12.25625 -10 13 C-10.66 12.67 -11.32 12.34 -12 12 C-8.04 8.04 -4.08 4.08 0 0 Z " fill="#242424" transform="translate(337,336)"/>
<path d="M0 0 C-1.32 0.33 -2.64 0.66 -4 1 C-4 1.99 -4 2.98 -4 4 C-5.65 4.33 -7.3 4.66 -9 5 C-9 4.01 -9 3.02 -9 2 C-3.375 -1.125 -3.375 -1.125 0 0 Z " fill="#E6E6E6" transform="translate(681,761)"/>
</svg>
